<?xml version="1.0" standalone="no"?><!DOCTYPE svg PUBLIC "-//W3C//DTD SVG 1.1//EN" "http://www.w3.org/Graphics/SVG/1.1/DTD/svg11.dtd"><svg t="1695697109489" class="icon" viewBox="0 0 1024 1024" version="1.1" xmlns="http://www.w3.org/2000/svg" p-id="4533" xmlns:xlink="http://www.w3.org/1999/xlink" width="200" height="200"><path d="M544 160a32 32 0 0 1 32 32v256h256a32 32 0 0 1 32 32v64a32 32 0 0 1-32 32h-256.032L576 832a32 32 0 0 1-32 32h-64a32 32 0 0 1-32-32l-0.032-256H192a32 32 0 0 1-32-32v-64a32 32 0 0 1 32-32h256V192a32 32 0 0 1 32-32h64z" fill="currentColor" p-id="4534"></path></svg>